<?xml version="1.0" encoding="UTF-8" standalone="no"?>
<!DOCTYPE svg PUBLIC "-//W3C//DTD SVG 1.1//EN" "http://www.w3.org/Graphics/SVG/1.1/DTD/svg11.dtd">
<svg width="100%" height="100%" viewBox="0 0 512 512" version="1.1" xmlns="http://www.w3.org/2000/svg" xmlns:xlink="http://www.w3.org/1999/xlink" xml:space="preserve" xmlns:serif="http://www.serif.com/" style="fill-rule:evenodd;clip-rule:evenodd;stroke-linejoin:round;stroke-miterlimit:2;">
    <g transform="matrix(0.133074,-0,0,-0.133526,-756.197411,563.794094)">
        <path d="M7340,4027C7337,4025 7306,4020 7270,4017C7234,4013 7194,4008 7180,4006C7166,4003 7130,3995 7100,3989C6899,3947 6596,3812 6402,3678C6343,3637 6185,3503 6122,3441C6027,3347 5900,3158 5900,3110C5900,3084 5937,3014 5946,3023C5949,3026 5964,3051 5978,3079C6019,3155 6141,3292 6235,3366C6281,3403 6320,3440 6323,3450C6325,3459 6358,3488 6396,3515C6461,3560 6662,3680 6673,3680C6676,3680 6707,3693 6742,3709C6923,3792 7058,3834 7227,3859C7323,3874 7343,3873 7337,3857C7333,3846 7349,3843 7413,3845C7767,3853 8142,3753 8440,3571C8501,3534 8638,3441 8677,3409C8700,3390 8746,3355 8780,3330C8883,3254 8960,3190 8960,3181C8960,3169 8934,3160 8901,3160C8831,3160 8588,3090 8533,3055C8521,3047 8503,3027 8494,3012C8485,2997 8469,2973 8459,2958C8436,2925 8435,2900 8455,2900C8463,2900 8496,2909 8527,2920C8681,2972 8889,2986 9066,2956L9177,2937L9211,2958C9252,2983 9320,3092 9320,3132C9320,3156 9271,3287 9185,3490C9133,3613 9035,3740 8992,3740C8978,3740 8965,3715 8955,3672C8946,3631 8968,3556 9026,3427C9067,3336 9078,3300 9064,3300C9061,3300 9026,3328 8986,3363C8946,3397 8900,3435 8884,3447C8868,3459 8824,3494 8785,3524C8684,3603 8672,3612 8596,3664C8465,3754 8212,3890 8177,3890C8170,3890 8160,3894 8155,3898C8137,3914 7950,3971 7832,3995C7743,4014 7670,4022 7530,4026C7428,4030 7343,4030 7340,4027Z" style="fill:rgb(25,83,79);fill-rule:nonzero;"/>
        <path d="M8658,2133C8654,1579 8654,1575 8631,1510C8555,1296 8470,1223 8307,1232C8216,1237 8170,1259 8125,1320C8057,1413 8040,1545 8040,1998L8040,2320L7172,2320L7168,1948C7164,1608 7161,1568 7142,1498C7115,1400 7091,1354 7043,1309C6983,1252 6926,1227 6840,1222C6775,1219 6759,1222 6720,1242C6666,1271 6620,1329 6588,1407L6565,1465L6562,2068L6559,2670L5693,2670L5686,2300C5678,1900 5684,1505 5702,1370C5707,1323 5729,1233 5750,1170C5852,856 5997,695 6251,609C6339,579 6354,577 6485,577C6655,577 6737,596 6886,670C7006,729 7088,800 7188,930L7256,1017L7279,976C7396,769 7586,635 7828,589C7903,575 8081,583 8155,603C8351,658 8511,772 8661,964L8705,1020L8708,830L8710,640L9530,640L9530,2690L8661,2690L8658,2133Z" style="fill:rgb(25,83,79);fill-rule:nonzero;"/>
    </g>
</svg>
