<?xml version="1.0" standalone="no"?>
<!DOCTYPE svg PUBLIC "-//W3C//DTD SVG 20010904//EN"
 "http://www.w3.org/TR/2001/REC-SVG-20010904/DTD/svg10.dtd">
<svg version="1.0" xmlns="http://www.w3.org/2000/svg"
 width="1786.000000pt" height="524.000000pt" viewBox="0 0 1786.000000 524.000000"
 preserveAspectRatio="xMidYMid meet">

<g transform="translate(0.000000,524.000000) scale(0.100000,-0.100000)"
fill="#19534F" stroke="none">
<path d="M7340 4027 c-3 -2 -34 -7 -70 -10 -36 -4 -76 -9 -90 -11 -14 -3 -50
-11 -80 -17 -201 -42 -504 -177 -698 -311 -59 -41 -217 -175 -280 -237 -95
-94 -222 -283 -222 -331 0 -26 37 -96 46 -87 3 3 18 28 32 56 41 76 163 213
257 287 46 37 85 74 88 84 2 9 35 38 73 65 65 45 266 165 277 165 3 0 34 13
69 29 181 83 316 125 485 150 96 15 116 14 110 -2 -4 -11 12 -14 76 -12 354 8
729 -92 1027 -274 61 -37 198 -130 237 -162 23 -19 69 -54 103 -79 103 -76
180 -140 180 -149 0 -12 -26 -21 -59 -21 -70 0 -313 -70 -368 -105 -12 -8 -30
-28 -39 -43 -9 -15 -25 -39 -35 -54 -23 -33 -24 -58 -4 -58 8 0 41 9 72 20
154 52 362 66 539 36 l111 -19 34 21 c41 25 109 134 109 174 0 24 -49 155
-135 358 -52 123 -150 250 -193 250 -14 0 -27 -25 -37 -68 -9 -41 13 -116 71
-245 41 -91 52 -127 38 -127 -3 0 -38 28 -78 63 -40 34 -86 72 -102 84 -16 12
-60 47 -99 77 -101 79 -113 88 -189 140 -131 90 -384 226 -419 226 -7 0 -17 4
-22 8 -18 16 -205 73 -323 97 -89 19 -162 27 -302 31 -102 4 -187 4 -190 1z"/>
<path d="M13325 3540 c-176 -26 -359 -53 -407 -60 l-88 -12 0 -1364 0 -1364
428 2 427 3 6 235 c4 129 11 249 16 265 32 97 84 155 184 207 49 25 55 26 61
10 3 -9 24 -74 46 -143 123 -390 304 -565 631 -609 90 -13 406 -9 442 5 12 4
23 70 53 308 21 166 40 314 43 328 l5 27 -110 -6 c-132 -6 -197 7 -270 54 -97
63 -159 190 -197 407 -10 54 -16 99 -14 101 2 2 148 104 324 226 176 122 324
226 328 230 4 4 -81 128 -189 276 -108 148 -215 294 -238 325 l-41 56 -145
-118 c-80 -64 -318 -259 -530 -432 l-385 -315 -3 704 -2 704 -28 -1 c-15 -1
-171 -23 -347 -49z"/>
<path d="M480 2160 l0 -1420 450 0 450 0 0 510 0 509 28 15 c46 24 155 57 162
49 4 -5 37 -128 74 -275 72 -288 97 -356 179 -482 227 -346 672 -500 1069
-369 43 14 89 36 103 49 l25 23 0 320 0 319 -162 -1 c-149 -1 -167 1 -213 22
-58 26 -107 70 -140 126 -31 52 -115 310 -115 351 0 46 37 85 128 135 237 129
359 296 403 554 15 85 6 267 -17 350 -56 207 -205 371 -449 492 -97 49 -177
77 -315 111 l-105 26 -777 3 -778 4 0 -1421z m1377 794 c180 -37 249 -117 242
-282 -3 -67 -9 -86 -34 -128 -43 -69 -90 -92 -233 -114 -105 -17 -393 -50
-435 -50 -15 0 -17 26 -17 279 0 154 3 286 6 295 9 23 361 23 471 0z"/>
<path d="M4175 2839 c-108 -14 -311 -83 -411 -141 -294 -167 -468 -387 -530
-670 -25 -112 -30 -344 -10 -449 65 -347 245 -587 559 -745 279 -141 597 -172
1007 -98 159 29 269 60 372 106 l68 31 -6 36 c-22 138 -102 506 -110 504 -5
-1 -63 -21 -129 -43 -177 -61 -266 -80 -400 -87 -197 -9 -324 22 -413 102 -55
50 -114 151 -95 163 6 4 284 43 617 87 l605 79 7 54 c11 90 -2 279 -25 369
-75 289 -247 505 -486 610 -172 75 -443 116 -620 92z m301 -524 c67 -20 134
-87 170 -171 15 -35 25 -66 23 -68 -11 -10 -620 -138 -626 -132 -14 14 -4 124
17 180 25 65 101 150 165 184 49 26 176 30 251 7z"/>
<path d="M10673 2831 c-66 -11 -203 -56 -265 -87 -197 -99 -373 -275 -470
-468 -83 -165 -119 -314 -120 -503 -1 -297 107 -565 313 -772 203 -203 440
-303 719 -302 266 1 474 108 613 318 23 35 45 63 49 63 4 0 8 -76 8 -170 l0
-170 430 0 430 0 0 1045 0 1045 -430 0 -430 0 -2 -221 -3 -220 -44 66 c-141
215 -253 304 -456 362 -60 17 -269 25 -342 14z m603 -686 c88 -43 163 -120
207 -212 29 -63 32 -76 32 -168 0 -93 -3 -105 -33 -168 -106 -217 -357 -306
-566 -200 -75 38 -152 116 -189 192 -30 63 -31 72 -30 174 1 96 4 114 29 165
32 67 150 189 209 217 118 56 227 56 341 0z"/>
<path d="M16380 2834 c-312 -40 -546 -153 -733 -354 -178 -193 -267 -429 -267
-709 1 -183 38 -340 117 -496 52 -103 88 -151 177 -241 225 -224 524 -334 910
-334 238 0 445 35 659 110 111 39 147 64 147 99 0 10 -20 126 -45 259 -25 132
-45 243 -45 245 0 3 -60 -15 -132 -40 -192 -64 -278 -83 -413 -90 -197 -9
-324 22 -414 103 -48 43 -111 147 -97 161 3 4 282 43 619 88 l612 81 6 54 c7
69 -7 259 -26 352 -55 258 -229 492 -457 612 -137 73 -235 96 -423 101 -88 2
-176 1 -195 -1z m279 -525 c61 -26 120 -88 156 -165 14 -29 25 -57 25 -62 0
-7 -596 -143 -629 -142 -11 0 -13 13 -8 63 13 143 95 266 204 305 32 12 67 23
78 26 38 9 123 -2 174 -25z"/>
<path d="M8658 2133 c-4 -554 -4 -558 -27 -623 -76 -214 -161 -287 -324 -278
-91 5 -137 27 -182 88 -68 93 -85 225 -85 678 l0 322 -434 0 -434 0 -4 -372
c-4 -340 -7 -380 -26 -450 -27 -98 -51 -144 -99 -189 -60 -57 -117 -82 -203
-87 -65 -3 -81 0 -120 20 -54 29 -100 87 -132 165 l-23 58 -3 603 -3 602 -433
0 -433 0 -7 -370 c-8 -400 -2 -795 16 -930 5 -47 27 -137 48 -200 102 -314
247 -475 501 -561 88 -30 103 -32 234 -32 170 0 252 19 401 93 120 59 202 130
302 260 l68 87 23 -41 c117 -207 307 -341 549 -387 75 -14 253 -6 327 14 196
55 356 169 506 361 l44 56 3 -190 2 -190 410 0 410 0 0 1025 0 1025 -434 0
-435 0 -3 -557z"/>
</g>
</svg>
